<?xml version="1.0" encoding="UTF-8" standalone="no" ?>
<!DOCTYPE svg PUBLIC "-//W3C//DTD SVG 1.1//EN" "http://www.w3.org/Graphics/SVG/1.1/DTD/svg11.dtd">
<svg xmlns="http://www.w3.org/2000/svg" xmlns:xlink="http://www.w3.org/1999/xlink" version="1.1" width="1080"
    height="1080" viewBox="0 0 1080 1080" xml:space="preserve">
    <g transform="matrix(4.01 0 0 3.22 539.5 539.5)" id="Cactus">
        <path
            style="stroke: #2FF924; stroke-width: 0.5; stroke-dasharray: none; stroke-linecap: butt; stroke-dashoffset: 0; stroke-linejoin: miter; stroke-miterlimit: 4; fill: #2FF924; fill-rule: nonzero; opacity: 1;"
            vector-effect="non-scaling-stroke" transform=" translate(-262.29, -244.73)"
            d="M 277.67 404.62 C 277.67 408.36 277.90000000000003 411.56 277.63 414.72 C 276.81 424.27000000000004 275.84 433.81 274.84 443.35 C 274.65 445.14000000000004 273.71 446.3 271.53 446.26000000000005 C 269.84 446.22 269.32 445.4800000000001 269.35999999999996 444.06000000000006 C 269.60999999999996 435.88000000000005 269.93999999999994 427.70000000000005 270.13999999999993 419.51000000000005 C 270.43999999999994 407.40000000000003 270.88999999999993 395.28000000000003 270.8499999999999 383.16 C 270.81999999999994 375.15000000000003 272.4099999999999 367.42 273.5399999999999 359.57000000000005 C 275.5599999999999 345.55000000000007 276.0599999999999 331.44000000000005 274.7499999999999 317.28000000000003 C 274.3599999999999 313.05 274.4199999999999 308.71000000000004 274.9299999999999 304.49 C 275.6499999999999 298.47 275.1299999999999 292.51 275.1199999999999 286.51 C 275.0999999999999 272.92 275.6999999999999 259.33 276.0599999999999 245.73999999999998 C 276.3899999999999 232.92 276.7599999999999 220.10999999999999 277.0599999999999 207.28999999999996 C 277.33999999999986 195.07999999999996 277.82999999999987 182.85999999999996 277.6699999999999 170.65999999999997 C 277.5599999999999 162.21999999999997 276.5599999999999 153.79999999999995 275.8799999999999 145.36999999999998 C 275.3899999999999 139.36999999999998 274.7999999999999 133.39 274.1999999999999 127.39999999999998 C 273.01999999999987 115.62999999999998 273.0599999999999 103.73999999999998 270.65999999999985 92.08999999999997 C 270.32999999999987 90.49999999999997 270.4499999999999 88.80999999999997 270.34999999999985 87.03999999999998 C 267.36999999999983 87.03999999999998 264.42999999999984 87.00999999999998 261.49999999999983 87.07999999999998 C 261.09999999999985 87.07999999999998 260.5099999999998 87.50999999999999 260.3399999999998 87.87999999999998 C 255.8799999999998 98.25999999999998 249.5099999999998 107.87999999999998 247.2499999999998 119.13999999999999 C 245.5199999999998 127.76999999999998 244.3399999999998 136.5 242.7299999999998 145.14999999999998 C 239.8399999999998 160.65999999999997 236.76999999999978 176.12999999999997 233.8499999999998 191.62999999999997 C 231.1499999999998 205.94999999999996 228.76999999999978 220.29999999999995 228.8199999999998 234.95999999999998 C 228.8399999999998 239.48 228.3899999999998 244.02999999999997 227.82999999999979 248.52999999999997 C 226.3599999999998 260.21999999999997 228.4099999999998 271.64 230.04999999999978 283.13 C 230.89999999999978 289.07 231.3499999999998 295.1 231.48999999999978 301.1 C 231.92999999999978 319.68 231.86999999999978 338.27000000000004 232.5399999999998 356.83000000000004 C 232.8499999999998 365.34000000000003 234.4499999999998 373.80000000000007 235.3599999999998 382.30000000000007 C 236.07999999999979 389.06000000000006 236.48999999999978 395.86000000000007 237.30999999999977 402.61000000000007 C 237.62999999999977 405.25000000000006 238.87999999999977 407.7700000000001 239.37999999999977 410.4000000000001 C 240.54999999999976 416.5600000000001 240.99999999999977 422.9000000000001 242.71999999999977 428.8900000000001 C 244.70999999999978 435.8200000000001 244.52999999999977 442.9800000000001 246.02999999999977 449.9200000000001 C 246.17999999999978 450.61000000000007 245.37999999999977 451.51000000000005 245.02999999999977 452.31000000000006 C 244.40999999999977 451.7300000000001 243.39999999999978 451.24000000000007 243.23999999999978 450.55000000000007 C 242.1399999999998 445.7100000000001 241.24999999999977 440.83000000000004 240.20999999999978 435.9800000000001 C 238.83999999999978 429.6000000000001 237.33999999999978 423.25000000000006 236.0099999999998 416.86000000000007 C 235.6399999999998 415.0800000000001 235.7199999999998 413.2100000000001 235.45999999999978 411.4000000000001 C 234.11999999999978 402.0100000000001 232.5699999999998 392.6500000000001 231.4199999999998 383.24000000000007 C 230.7299999999998 377.62000000000006 230.76999999999978 371.9200000000001 230.2599999999998 366.2800000000001 C 229.3099999999998 355.7800000000001 228.0899999999998 345.30000000000007 227.1999999999998 334.7900000000001 C 226.79999999999978 330.11000000000007 226.6899999999998 325.37000000000006 226.8499999999998 320.6700000000001 C 227.3499999999998 305.9700000000001 225.6799999999998 291.3900000000001 224.51999999999978 276.7800000000001 C 224.32999999999979 274.4400000000001 224.3199999999998 272.0800000000001 224.27999999999977 269.7200000000001 C 224.1399999999998 262.05000000000007 223.8899999999998 254.38000000000008 223.94999999999976 246.72000000000008 C 223.99999999999977 240.6200000000001 224.20999999999975 234.50000000000009 224.78999999999976 228.4300000000001 C 225.79999999999976 217.85000000000008 227.05999999999977 207.2800000000001 228.41999999999976 196.7400000000001 C 228.80999999999975 193.7400000000001 229.78999999999976 190.8000000000001 230.74999999999977 187.91000000000008 C 232.93999999999977 181.26000000000008 234.31999999999977 174.4900000000001 235.08999999999978 167.51000000000008 C 236.04999999999978 158.7800000000001 237.68999999999977 150.12000000000006 238.8899999999998 141.41000000000008 C 240.30999999999977 131.13000000000008 241.9199999999998 120.89000000000009 245.20999999999978 111.00000000000009 C 247.40999999999977 104.39000000000009 249.52999999999977 97.75000000000009 251.6699999999998 91.12000000000009 C 251.79999999999978 90.73000000000009 251.86999999999978 90.32000000000009 252.11999999999978 89.3000000000001 C 250.17999999999978 90.65000000000009 248.65999999999977 91.6100000000001 247.24999999999977 92.7100000000001 C 232.70999999999978 104.03000000000009 222.17999999999978 118.26000000000009 216.05999999999977 135.7000000000001 C 215.05999999999977 138.5500000000001 214.00999999999976 141.3800000000001 212.80999999999977 144.1500000000001 C 209.98999999999978 150.66000000000008 208.81999999999977 157.54000000000008 208.62999999999977 164.5300000000001 C 208.22999999999976 178.91000000000008 208.06999999999977 193.3100000000001 207.88999999999976 207.7000000000001 C 207.78999999999976 215.8200000000001 207.74999999999977 223.9300000000001 207.86999999999975 232.0500000000001 C 207.96999999999974 238.7600000000001 208.09999999999974 245.4800000000001 208.65999999999974 252.16000000000008 C 209.36999999999975 260.7100000000001 209.38999999999973 269.19000000000005 208.64999999999975 277.7600000000001 C 207.71999999999974 288.5300000000001 207.69999999999976 299.3800000000001 206.88999999999976 310.1700000000001 C 205.71999999999977 325.7200000000001 206.80999999999975 341.19000000000005 207.78999999999976 356.69000000000005 C 208.23999999999975 363.82000000000005 207.91999999999976 371.01000000000005 208.54999999999976 378.12000000000006 C 208.91999999999976 382.2800000000001 210.57999999999976 386.31000000000006 211.45999999999975 390.45000000000005 C 211.80999999999975 392.11000000000007 211.58999999999975 393.88000000000005 211.63999999999976 395.61000000000007 C 211.77999999999975 400.93000000000006 211.81999999999977 406.26000000000005 212.10999999999976 411.57000000000005 C 212.35999999999976 416.08000000000004 212.33999999999975 420.72 213.47999999999976 425.03000000000003 C 214.86999999999975 430.29 214.05999999999977 435.65000000000003 215.28999999999976 440.88000000000005 C 216.54999999999976 446.20000000000005 217.32999999999976 451.64000000000004 218.25999999999976 457.0400000000001 C 218.35999999999976 457.61000000000007 218.09999999999977 458.25000000000006 217.88999999999976 459.57000000000005 C 217.00999999999976 458.38000000000005 216.57999999999976 457.81000000000006 216.12999999999977 457.21000000000004 C 215.73999999999978 457.41 215.26999999999975 457.65000000000003 214.67999999999978 457.96000000000004 C 214.2299999999998 456.58000000000004 213.54999999999978 455.39000000000004 213.48999999999978 454.16 C 213.0399999999998 443.89000000000004 210.15999999999977 433.95000000000005 210.27999999999977 423.52000000000004 C 210.40999999999977 412.85 208.81999999999977 402.15000000000003 207.71999999999977 391.49 C 206.24999999999977 377.18 204.44999999999976 362.90000000000003 202.94999999999976 348.59000000000003 C 202.59999999999977 345.22 202.92999999999975 341.79 202.83999999999975 338.39000000000004 C 202.80999999999975 337.27000000000004 202.45999999999975 336.17 202.21999999999974 334.85 C 199.38999999999973 336.08000000000004 196.99999999999974 337.11 194.60999999999973 338.14000000000004 C 189.47999999999973 340.35 184.25999999999974 340.41 179.04999999999973 338.53000000000003 C 176.76999999999973 337.71000000000004 174.40999999999974 336.86 172.39999999999972 335.54 C 164.6899999999997 330.46000000000004 157.02999999999972 325.29 149.5099999999997 319.94 C 142.9399999999997 315.27 139.27999999999972 308.41 136.2899999999997 301.15 C 133.33999999999972 293.97999999999996 130.39999999999972 286.81 127.34999999999971 279.67999999999995 C 126.9499999999997 278.74999999999994 126.06999999999971 277.7699999999999 125.15999999999971 277.35999999999996 C 121.98999999999971 275.93999999999994 118.71999999999971 274.74999999999994 115.4799999999997 273.48999999999995 C 114.4199999999997 273.0799999999999 112.65999999999971 273.18999999999994 113.34999999999971 271.34 C 113.98999999999971 269.63 115.31999999999971 269.92999999999995 116.78999999999971 270.59 C 119.5299999999997 271.82 122.3699999999997 272.84 125.4199999999997 274.04999999999995 C 124.09999999999971 267.68999999999994 123.3699999999997 261.48999999999995 121.45999999999971 255.65999999999997 C 118.6199999999997 246.98999999999998 114.9499999999997 238.57999999999998 111.6399999999997 230.06999999999996 C 111.4499999999997 229.57999999999996 111.06999999999971 229.06999999999996 111.1199999999997 228.60999999999996 C 111.20999999999971 227.86999999999995 111.59999999999971 227.15999999999997 111.8599999999997 226.43999999999997 C 112.4499999999997 226.83999999999997 113.3299999999997 227.11999999999998 113.5799999999997 227.66999999999996 C 114.9399999999997 230.77999999999997 116.1699999999997 233.94999999999996 117.3999999999997 237.11999999999995 C 118.33999999999969 239.53999999999994 119.19999999999969 241.99999999999994 120.1899999999997 244.67999999999995 C 120.6399999999997 239.89999999999995 120.6899999999997 235.31999999999994 121.5599999999997 230.88999999999996 C 123.9799999999997 218.49999999999994 126.9199999999997 206.21999999999997 129.2099999999997 193.80999999999995 C 129.7499999999997 190.88999999999996 128.6999999999997 187.61999999999995 128.1499999999997 184.55999999999995 C 127.38999999999969 180.26999999999995 126.3499999999997 176.02999999999994 125.5799999999997 171.73999999999995 C 125.4399999999997 170.98999999999995 126.0199999999997 170.11999999999995 126.2599999999997 169.29999999999995 C 126.9199999999997 169.91999999999996 127.9999999999997 170.44999999999996 128.1699999999997 171.17999999999995 C 129.2299999999997 175.84999999999994 130.0899999999997 180.56999999999994 131.02999999999972 185.26999999999995 C 131.14999999999972 185.84999999999997 131.32999999999973 186.41999999999996 131.5999999999997 187.44999999999996 C 133.49999999999972 183.61999999999995 135.1399999999997 180.14999999999995 136.9199999999997 176.73999999999995 C 139.3099999999997 172.15999999999994 142.6299999999997 169.05999999999995 148.3299999999997 169.76999999999995 C 148.8999999999997 169.83999999999995 149.8099999999997 169.12999999999997 150.1699999999997 168.53999999999996 C 151.3799999999997 166.53999999999996 152.3599999999997 164.40999999999997 153.5199999999997 162.37999999999997 C 154.0499999999997 161.45999999999998 154.7899999999997 160.66999999999996 155.7499999999997 159.39999999999998 C 157.0599999999997 162.26999999999998 155.0599999999997 163.79999999999998 154.56999999999968 165.62999999999997 C 154.0599999999997 167.54999999999995 153.2199999999997 169.37999999999997 152.41999999999967 171.49999999999997 C 159.65999999999968 176.16999999999996 161.47999999999968 184.06999999999996 164.79999999999967 192.25999999999996 C 167.75999999999968 188.54999999999995 170.71999999999966 184.83999999999997 173.60999999999967 181.23999999999995 C 176.68999999999969 183.76999999999995 176.7199999999997 185.42999999999995 174.58999999999966 187.00999999999996 C 171.79999999999967 189.08999999999997 168.88999999999967 191.00999999999996 166.16999999999967 193.17999999999995 C 165.47999999999968 193.72999999999996 164.88999999999967 195.01999999999995 164.9999999999997 195.87999999999994 C 166.8599999999997 210.57999999999993 168.7099999999997 225.28999999999994 170.8399999999997 239.94999999999993 C 172.2199999999997 249.50999999999993 174.03999999999968 259.00999999999993 175.6699999999997 268.5299999999999 C 175.9499999999997 268.5999999999999 176.2399999999997 268.6699999999999 176.5199999999997 268.7399999999999 C 178.0199999999997 266.5899999999999 179.4899999999997 264.4199999999999 181.0499999999997 262.3099999999999 C 181.4499999999997 261.76999999999987 182.1299999999997 261.4499999999999 182.68999999999969 261.0299999999999 C 182.90999999999968 261.7299999999999 183.5199999999997 262.63999999999993 183.2799999999997 263.0999999999999 C 181.94999999999968 265.6099999999999 180.6199999999997 268.1899999999999 178.8699999999997 270.3999999999999 C 177.4799999999997 272.1599999999999 177.3299999999997 273.55999999999995 178.1999999999997 275.5499999999999 C 180.3399999999997 280.4499999999999 183.6099999999997 284.2699999999999 188.24999999999972 286.8999999999999 C 192.77999999999972 289.4699999999999 197.70999999999972 290.81999999999994 203.32999999999973 291.63999999999993 C 203.80999999999972 287.17999999999995 204.51999999999973 282.8999999999999 204.66999999999973 278.5999999999999 C 205.04999999999973 267.6099999999999 205.38999999999973 256.6199999999999 205.31999999999974 245.6299999999999 C 205.27999999999975 239.9799999999999 204.61999999999975 234.2899999999999 203.63999999999973 228.7299999999999 C 203.31999999999974 226.9199999999999 201.36999999999972 224.6599999999999 199.63999999999973 224.0199999999999 C 196.63999999999973 222.90999999999988 193.22999999999973 222.8199999999999 189.97999999999973 222.4799999999999 C 189.36999999999972 222.4099999999999 188.70999999999972 223.2299999999999 188.00999999999974 223.4499999999999 C 187.36999999999975 223.6499999999999 186.64999999999972 223.5799999999999 185.96999999999974 223.6199999999999 C 185.94999999999973 222.8999999999999 185.63999999999973 221.7499999999999 185.95999999999975 221.5299999999999 C 187.11999999999975 220.72999999999988 188.50999999999976 219.69999999999987 189.78999999999976 219.7399999999999 C 193.05999999999977 219.8399999999999 196.31999999999977 220.4199999999999 199.57999999999976 220.8999999999999 C 200.66999999999976 221.0599999999999 201.70999999999975 221.46999999999989 202.74999999999974 221.7699999999999 C 203.85999999999976 202.0899999999999 200.76999999999975 182.5499999999999 204.19999999999973 162.8599999999999 C 202.38999999999973 162.7599999999999 200.57999999999973 162.6999999999999 198.77999999999975 162.5599999999999 C 197.21999999999974 162.4299999999999 195.58999999999975 162.43999999999988 194.15999999999974 161.9199999999999 C 193.36999999999975 161.6299999999999 192.91999999999973 160.3899999999999 192.31999999999974 159.5699999999999 C 193.10999999999973 159.1299999999999 193.91999999999973 158.27999999999992 194.69999999999973 158.30999999999992 C 198.08999999999972 158.4399999999999 201.45999999999972 158.82999999999993 205.13999999999973 159.14999999999992 C 206.88999999999973 153.1599999999999 208.71999999999974 147.08999999999992 210.37999999999974 140.9799999999999 C 210.53999999999974 140.3999999999999 209.79999999999973 139.33999999999992 209.19999999999973 138.83999999999992 C 206.93999999999974 136.92999999999992 204.45999999999972 135.2899999999999 202.28999999999974 133.2899999999999 C 201.32999999999973 132.4099999999999 200.78999999999974 130.9599999999999 200.35999999999973 129.6699999999999 C 200.21999999999974 129.2399999999999 200.92999999999972 128.1699999999999 201.44999999999973 127.9899999999999 C 201.88999999999973 127.83999999999989 203.01999999999973 128.4299999999999 203.16999999999973 128.90999999999988 C 204.45999999999972 132.8999999999999 208.04999999999973 134.2399999999999 210.75999999999974 136.21999999999989 C 213.33999999999975 129.94999999999987 215.82999999999973 123.88999999999989 218.53999999999974 117.27999999999989 C 216.64999999999975 115.86999999999989 214.15999999999974 114.02999999999989 211.68999999999974 112.14999999999989 C 208.91999999999973 110.02999999999989 206.12999999999974 107.9399999999999 203.46999999999974 105.6799999999999 C 202.96999999999974 105.25999999999989 203.07999999999976 104.1299999999999 202.90999999999974 103.3199999999999 C 203.65999999999974 103.41999999999989 204.61999999999975 103.25999999999989 205.13999999999973 103.66999999999989 C 210.25999999999974 107.57999999999988 215.30999999999972 111.57999999999988 220.52999999999975 115.66999999999989 C 224.75999999999974 108.4599999999999 229.21999999999974 101.16999999999989 236.39999999999975 95.65999999999988 C 235.08999999999975 93.67999999999988 233.71999999999974 91.79999999999988 232.54999999999976 89.80999999999989 C 231.49999999999974 88.01999999999988 229.37999999999977 86.69999999999989 229.57999999999976 84.32999999999988 C 229.83999999999975 84.15999999999988 230.08999999999975 83.97999999999989 230.34999999999977 83.80999999999989 C 233.10999999999976 87.0699999999999 235.86999999999978 90.32999999999988 238.78999999999976 93.7699999999999 C 239.19999999999976 93.47999999999989 239.84999999999977 93.1099999999999 240.40999999999977 92.61999999999989 C 242.37999999999977 90.89999999999989 244.41999999999976 89.2399999999999 246.25999999999976 87.38999999999989 C 256.70999999999975 76.88999999999989 269.0499999999998 76.15999999999988 282.3599999999998 80.25999999999989 C 282.93999999999977 80.4399999999999 283.4999999999998 80.64999999999989 284.25999999999976 80.9099999999999 C 285.59999999999974 73.7499999999999 289.4899999999998 67.8299999999999 292.93999999999977 61.709999999999894 C 293.51999999999975 60.68999999999989 294.06999999999977 59.21999999999989 295.6599999999998 60.24999999999989 C 297.2199999999998 61.25999999999989 296.0499999999998 62.32999999999989 295.5099999999998 63.379999999999896 C 292.9399999999998 68.30999999999989 290.30999999999983 73.1999999999999 287.8899999999998 78.1999999999999 C 286.6899999999998 80.6899999999999 287.4499999999998 82.6199999999999 289.85999999999984 84.4099999999999 C 297.11999999999983 89.8099999999999 301.8799999999998 97.1699999999999 305.32999999999987 105.4299999999999 C 305.4499999999999 105.7199999999999 305.5599999999999 106.0199999999999 305.46999999999986 105.78999999999989 C 309.84999999999985 102.44999999999989 314.21999999999986 99.0799999999999 318.61999999999983 95.77999999999989 C 319.22999999999985 95.3199999999999 320.0699999999998 94.84999999999988 320.74999999999983 94.90999999999988 C 321.6399999999998 94.98999999999988 322.46999999999986 95.59999999999988 323.3299999999998 95.98999999999988 C 322.9199999999998 96.82999999999988 322.73999999999984 98.02999999999989 322.0699999999998 98.44999999999987 C 320.1599999999998 99.63999999999987 317.9599999999998 100.36999999999988 316.03999999999985 101.54999999999987 C 314.11999999999983 102.72999999999988 312.26999999999987 104.08999999999988 310.59999999999985 105.60999999999987 C 306.89999999999986 108.96999999999987 307.03999999999985 109.70999999999987 308.70999999999987 114.31999999999988 C 310.21999999999986 118.46999999999989 311.70999999999987 122.77999999999989 312.09999999999985 127.11999999999988 C 312.51999999999987 131.72999999999988 311.57999999999987 136.45999999999987 311.30999999999983 141.14999999999986 C 311.0099999999998 146.42999999999986 310.80999999999983 151.71999999999986 310.52999999999986 157.63999999999987 C 313.76999999999987 156.04999999999987 316.35999999999984 154.72999999999988 318.98999999999984 153.4999999999999 C 320.16999999999985 152.94999999999987 321.41999999999985 152.18999999999988 322.6299999999998 152.2099999999999 C 323.66999999999985 152.2299999999999 325.24999999999983 152.9899999999999 325.59999999999985 153.8399999999999 C 326.2599999999999 155.4199999999999 325.0099999999999 156.1999999999999 323.4399999999998 156.6799999999999 C 320.11999999999983 157.68999999999988 316.86999999999983 158.9199999999999 313.5899999999998 160.0499999999999 C 311.5999999999998 160.7399999999999 311.0199999999998 162.0199999999999 311.0399999999998 164.18999999999988 C 311.1599999999998 180.6799999999999 311.1499999999998 197.16999999999987 311.1099999999998 213.6499999999999 C 311.0899999999998 223.4999999999999 310.94999999999976 233.3599999999999 310.8699999999998 243.2099999999999 C 310.8699999999998 244.3299999999999 310.8699999999998 245.4499999999999 310.8699999999998 247.1399999999999 C 313.82999999999976 245.74999999999991 316.2799999999998 244.4599999999999 318.8399999999998 243.4299999999999 C 322.8599999999998 241.8099999999999 326.8899999999998 240.1799999999999 331.0199999999998 238.8999999999999 C 336.0499999999998 237.3299999999999 339.6899999999998 234.1499999999999 342.4499999999998 229.84999999999988 C 346.2699999999998 223.88999999999987 347.9499999999998 217.1799999999999 348.1599999999998 210.22999999999988 C 348.3899999999998 202.47999999999988 347.9799999999998 194.69999999999987 347.8299999999998 186.93999999999988 C 347.8299999999998 186.44999999999987 347.7099999999998 185.8699999999999 347.4199999999998 185.4899999999999 C 345.4999999999998 182.9599999999999 343.5399999999998 180.4599999999999 341.56999999999977 177.96999999999989 C 340.69999999999976 176.8699999999999 339.94999999999976 175.60999999999987 341.40999999999974 174.65999999999988 C 341.8099999999997 174.3999999999999 343.2499999999997 175.34999999999988 343.95999999999975 176.0199999999999 C 345.25999999999976 177.2399999999999 346.37999999999977 178.65999999999988 347.71999999999974 180.1699999999999 C 349.35999999999973 171.3099999999999 350.91999999999973 162.8899999999999 352.33999999999975 155.2299999999999 C 350.6199999999997 153.1099999999999 348.94999999999976 151.1199999999999 347.34999999999974 149.0799999999999 C 346.75999999999976 148.3299999999999 346.08999999999975 147.5099999999999 345.90999999999974 146.6299999999999 C 345.71999999999974 145.7199999999999 346.07999999999976 144.6999999999999 346.19999999999976 143.7299999999999 C 346.93999999999977 144.1899999999999 347.78999999999974 144.5199999999999 348.38999999999976 145.1199999999999 C 350.18999999999977 146.93999999999988 351.88999999999976 148.8599999999999 353.9299999999998 151.0599999999999 C 355.2199999999998 148.3299999999999 356.18999999999977 146.21999999999989 357.19999999999976 144.1399999999999 C 359.4199999999998 139.5599999999999 362.78999999999974 136.2199999999999 367.57999999999976 134.3199999999999 C 372.15999999999974 132.4899999999999 376.41999999999973 132.3899999999999 380.1799999999998 136.4599999999999 C 382.0899999999998 133.9199999999999 383.8499999999998 131.4599999999999 385.7499999999998 129.1199999999999 C 386.19999999999976 128.56999999999988 387.0999999999998 128.3899999999999 387.7899999999998 128.0299999999999 C 387.81999999999977 128.84999999999988 388.1699999999998 129.84999999999988 387.8299999999998 130.4599999999999 C 386.1299999999998 133.4599999999999 384.24999999999983 136.3599999999999 382.3299999999998 139.46999999999989 C 388.3399999999998 148.62999999999988 390.5699999999998 159.15999999999988 391.2199999999998 170.21999999999989 C 391.3899999999998 173.15999999999988 392.7199999999998 176.0299999999999 393.4499999999998 178.7099999999999 C 396.8499999999998 176.9299999999999 400.1599999999998 175.1999999999999 403.4799999999998 173.4599999999999 C 403.93999999999977 173.21999999999989 404.4199999999998 172.71999999999989 404.8499999999998 172.7599999999999 C 405.8399999999998 172.8499999999999 406.7999999999998 173.1999999999999 407.7799999999998 173.4499999999999 C 407.3099999999998 174.2599999999999 407.0399999999998 175.4099999999999 406.3399999999998 175.80999999999992 C 402.7199999999998 177.88999999999993 398.9699999999998 179.7299999999999 395.3199999999998 181.76999999999992 C 394.6999999999998 182.11999999999992 393.9599999999998 182.95999999999992 393.9399999999998 183.59999999999994 C 393.59999999999985 193.67999999999995 393.35999999999984 203.75999999999993 393.09999999999985 213.86999999999995 C 394.83999999999986 212.34999999999994 396.6899999999998 210.34999999999994 398.8899999999999 208.88999999999996 C 402.41999999999985 206.54999999999995 406.1099999999999 204.42999999999995 409.8899999999999 202.52999999999994 C 410.59999999999985 202.16999999999993 412.46999999999986 202.95999999999995 413.03999999999985 203.75999999999993 C 413.92999999999984 205.01999999999992 413.33999999999986 206.40999999999994 411.8199999999998 207.18999999999994 C 407.79999999999984 209.23999999999995 403.5899999999998 211.00999999999993 399.8399999999998 213.46999999999994 C 395.6399999999998 216.23999999999995 390.9399999999998 218.87999999999994 390.9699999999998 225.10999999999996 C 390.9799999999998 227.39999999999995 390.3799999999998 229.69999999999996 390.1199999999998 231.55999999999995 C 395.82999999999976 230.07999999999996 401.43999999999977 228.60999999999996 407.0599999999998 227.16999999999996 C 407.81999999999977 226.97999999999996 408.6099999999998 226.93999999999997 409.38999999999976 226.82999999999996 C 410.95999999999975 226.60999999999996 412.3099999999998 226.96999999999994 412.53999999999974 228.72999999999996 C 412.78999999999974 230.62999999999997 411.46999999999974 231.39999999999995 409.8199999999997 231.49999999999997 C 403.3099999999997 231.90999999999997 397.22999999999973 233.97999999999996 391.1399999999997 236.10999999999999 C 389.3999999999997 236.72 388.9099999999997 237.69 388.60999999999973 239.23999999999998 C 387.0599999999997 247.12999999999997 385.32999999999976 254.95999999999998 380.9299999999997 261.87 C 379.66999999999973 263.84000000000003 378.34999999999974 265.77 376.6899999999997 268.28000000000003 C 379.2399999999997 268.53000000000003 381.40999999999974 268.89000000000004 383.5799999999997 268.93 C 387.0699999999997 268.99 390.5599999999997 268.84000000000003 394.0499999999997 268.78000000000003 C 395.72999999999973 268.75000000000006 397.08999999999975 269.31 397.09999999999974 271.21000000000004 C 397.10999999999973 273.32000000000005 395.60999999999973 273.70000000000005 393.83999999999975 273.63000000000005 C 387.4999999999998 273.38000000000005 381.07999999999976 273.81000000000006 374.97999999999973 271.39000000000004 C 374.4899999999997 271.20000000000005 373.51999999999975 271.62000000000006 373.0599999999997 272.06000000000006 C 361.22999999999973 283.39000000000004 346.9999999999997 289.51000000000005 330.7999999999997 290.36000000000007 C 324.27999999999975 290.70000000000005 317.66999999999973 289.1500000000001 311.09999999999974 288.4600000000001 C 310.75999999999976 288.4200000000001 310.41999999999973 288.36000000000007 310.10999999999973 288.3200000000001 C 310.10999999999973 291.6500000000001 310.02999999999975 294.92000000000013 310.1199999999997 298.17000000000013 C 310.59999999999974 315.6200000000001 311.0199999999997 333.0700000000001 311.6499999999997 350.5100000000001 C 311.9199999999997 358.0000000000001 312.4799999999997 365.4900000000001 313.1899999999997 372.9600000000001 C 314.2999999999997 384.5800000000001 312.34999999999974 395.9000000000001 310.4299999999997 407.2700000000001 C 308.85999999999973 416.5400000000001 307.66999999999973 425.8700000000001 306.3099999999997 435.1800000000001 C 305.77999999999975 438.8000000000001 305.2399999999997 442.41000000000014 304.6799999999997 446.1800000000001 L 299.96999999999974 446.1800000000001 C 299.8099999999997 445.98000000000013 299.59999999999974 445.84000000000015 299.60999999999973 445.73000000000013 C 300.64999999999975 436.9900000000001 295.20999999999975 430.83000000000015 290.89999999999975 424.3000000000001 C 287.9299999999997 419.8000000000001 284.39999999999975 415.6800000000001 281.27999999999975 411.27000000000015 C 279.94999999999976 409.39000000000016 279.03999999999974 407.22000000000014 277.65999999999974 404.6800000000002 Z M 146.37 177.21 C 145.66 180.45000000000002 145.17000000000002 183.56 144.27 186.54000000000002 C 142.51000000000002 192.38000000000002 142.08 198.28000000000003 142.21 204.36 C 142.34 210.62 141.81 216.89000000000001 141.54000000000002 223.15 C 141.26000000000002 229.59 140.29000000000002 236.07 140.77 242.44 C 141.99 258.55 146.53 273.92 152.59 288.84 C 153.43 290.90999999999997 154.46 293.13 156.01 294.64 C 159.29999999999998 297.83 163 300.59999999999997 166.51999999999998 303.55 C 169.89 306.38 173.82 307.8 178.10999999999999 308.59000000000003 C 185.54999999999998 309.97 193.04 311.22 199.95 314.57000000000005 C 200.82999999999998 315.00000000000006 201.83999999999997 315.13000000000005 202.95 315.45000000000005 C 202.64999999999998 309.71000000000004 202.36999999999998 304.35 202.07999999999998 298.85 C 201.7 298.79 201.27999999999997 298.71000000000004 200.86999999999998 298.66 C 183.95999999999998 296.85 171.81999999999996 287.95000000000005 168.92999999999998 271.13 C 167.58999999999997 263.35 167.29 255.38 166.60999999999999 247.49 C 166.07999999999998 241.33 166.33999999999997 235.03 165.10999999999999 229.03 C 162.42999999999998 215.99 159.1 203.08 155.82999999999998 190.16 C 155.01 186.91 153.52999999999997 183.79999999999998 152.14999999999998 180.72 C 151.09999999999997 178.4 149.10999999999999 177.2 146.37999999999997 177.19 Z M 371.03 143.38 C 367.30999999999995 143.97 364.65999999999997 145.23 363.21999999999997 148.1 C 361.73999999999995 151.04 359.95 154.01999999999998 359.36999999999995 157.18 C 357.80999999999995 165.74 356.43999999999994 174.37 355.68999999999994 183.04000000000002 C 354.56999999999994 195.99 353.67999999999995 208.97000000000003 350.30999999999995 221.57000000000002 C 348.78999999999996 227.25000000000003 346.8999999999999 232.93 344.31999999999994 238.20000000000002 C 341.5199999999999 243.94000000000003 336.48999999999995 247.17000000000002 329.8299999999999 247.41000000000003 C 328.4599999999999 247.46000000000004 327.0799999999999 247.84000000000003 325.7299999999999 248.18000000000004 C 321.1799999999999 249.35000000000002 316.6299999999999 250.52000000000004 312.1299999999999 251.86000000000004 C 311.52999999999986 252.04000000000005 310.8699999999999 253.14000000000004 310.82999999999987 253.84000000000003 C 310.57999999999987 258.11 310.4899999999999 262.38000000000005 310.3799999999999 266.66 C 310.3599999999999 267.31 310.52999999999986 267.96000000000004 310.6899999999999 269.22 C 315.4799999999999 268.5 320.0499999999999 267.95000000000005 324.5499999999999 267.1 C 328.2199999999999 266.41 331.8899999999999 265.57000000000005 335.4499999999999 264.45000000000005 C 344.8199999999999 261.52000000000004 353.8199999999999 257.89000000000004 358.2599999999999 248.12000000000006 C 361.1399999999999 241.79000000000005 363.9199999999999 235.40000000000006 366.46999999999986 228.92000000000007 C 370.71999999999986 218.15000000000006 372.1299999999999 206.83000000000007 372.15999999999985 195.3400000000001 C 372.1899999999998 183.4900000000001 371.98999999999984 171.63000000000008 371.77999999999986 159.7800000000001 C 371.67999999999984 154.4000000000001 371.29999999999984 149.0300000000001 371.02999999999986 143.38000000000008 Z M 203.37999999999997 320.84000000000003 C 198.13999999999996 319.68 192.89999999999998 318.77000000000004 187.80999999999997 317.33000000000004 C 179.24999999999997 314.91 170.74999999999997 312.28000000000003 164.28999999999996 305.51000000000005 C 163.01999999999995 304.18000000000006 161.07999999999996 303.45000000000005 159.37999999999997 302.58000000000004 C 153.90999999999997 299.77000000000004 150.23999999999995 295.46000000000004 148.29999999999995 289.63000000000005 C 146.29999999999995 283.6000000000001 144.42999999999995 277.51000000000005 142.12999999999997 271.59000000000003 C 139.02999999999997 263.64000000000004 137.93999999999997 255.41000000000003 137.97999999999996 246.99000000000004 C 138.02999999999997 235.65000000000003 138.19999999999996 224.32000000000005 138.45999999999995 212.99000000000004 C 138.63999999999996 204.97000000000003 139.06999999999996 197.00000000000003 141.78999999999996 189.27000000000004 C 142.91999999999996 186.05000000000004 143.06999999999996 182.49000000000004 143.66999999999996 179.09000000000003 C 142.45999999999995 179.94000000000003 141.73999999999995 180.99000000000004 141.20999999999995 182.12000000000003 C 137.87999999999994 189.27000000000004 134.62999999999994 196.45000000000005 131.08999999999995 203.50000000000003 C 126.93999999999994 211.77000000000004 126.19999999999995 220.88000000000002 125.84999999999995 229.98000000000002 C 125.34999999999995 243.21 127.10999999999996 256.27000000000004 129.23999999999995 269.27000000000004 C 130.10999999999996 274.54 130.86999999999995 280.16 133.27999999999994 284.79 C 139.81999999999994 297.40000000000003 148.01999999999995 308.89000000000004 159.63999999999993 317.53000000000003 C 161.66999999999993 319.04 163.58999999999992 320.69000000000005 165.45999999999992 322.40000000000003 C 169.98999999999992 326.55 175.26999999999992 329.29 181.16999999999993 330.89000000000004 C 188.35999999999993 332.84000000000003 195.60999999999993 333.99000000000007 203.38999999999993 332.74000000000007 L 203.38999999999993 320.8500000000001 Z M 310.17999999999995 270.13000000000005 C 310.11999999999995 270.9800000000001 310.04999999999995 271.75000000000006 310.00999999999993 272.53000000000003 C 309.72999999999996 277.68 309.75999999999993 278.00000000000006 314.93999999999994 277.54 C 328.2199999999999 276.38 341.4699999999999 274.93 354.72999999999996 273.54 C 355.42999999999995 273.47 356.16999999999996 272.99 356.73999999999995 272.52000000000004 C 362.5799999999999 267.6 366.96999999999997 261.65000000000003 369.75999999999993 254.50000000000003 C 371.74999999999994 249.39000000000001 374.05999999999995 244.41000000000003 376.11999999999995 239.32000000000002 C 377.09999999999997 236.92000000000002 378.16999999999996 234.49 378.61999999999995 231.96 C 380.65999999999997 220.55 382.6499999999999 209.14000000000001 384.34 197.68 C 385.28999999999996 191.25 386.32 184.69 386.03999999999996 178.24 C 385.73999999999995 171.51000000000002 384.26 164.76000000000002 382.60999999999996 158.19 C 381.59999999999997 154.18 379.28999999999996 150.49 377.56999999999994 146.65 C 377.16999999999996 151.85 377.2199999999999 156.71 377.1599999999999 161.57 C 377.0399999999999 171.42 376.87999999999994 181.26 376.6799999999999 191.10999999999999 C 376.6199999999999 194.32 376.76999999999987 197.6 376.1899999999999 200.73 C 374.76999999999987 208.42999999999998 372.77999999999986 216.01999999999998 371.3799999999999 223.73 C 369.57999999999987 233.64999999999998 366.3099999999999 242.89999999999998 360.26999999999987 251.06 C 354.59999999999985 258.72 346.5699999999999 263.61 339.03999999999985 269.07 C 337.74999999999983 270 336.0099999999999 270.36 334.4399999999998 270.84999999999997 C 326.35999999999984 273.4 318.40999999999985 271.49999999999994 310.15999999999985 270.10999999999996 Z M 302.50999999999993 316.9200000000001 C 303.17999999999995 310.81000000000006 303.9099999999999 305.2900000000001 304.35999999999996 299.74000000000007 C 304.73999999999995 295.00000000000006 304.99999999999994 290.49000000000007 301.47999999999996 286.2100000000001 C 296.62999999999994 280.3200000000001 292.72999999999996 273.6500000000001 288.2 267.4900000000001 C 286.63 265.35000000000014 284.37 263.72000000000014 282.42 261.8600000000001 C 281.52000000000004 271.3100000000001 281.16 280.27000000000015 281.06 289.23000000000013 C 281.04 290.90000000000015 281.57 292.9400000000001 282.6 294.1800000000001 C 287.42 300.0200000000001 292.5 305.65000000000015 297.5 311.35000000000014 C 299.03 313.10000000000014 300.61 314.8000000000001 302.52 316.91000000000014 Z M 281.1499999999999 345.32000000000005 C 280.9299999999999 346.91 280.7699999999999 347.65000000000003 280.7399999999999 348.39000000000004 C 280.4699999999999 354.30000000000007 280.4699999999999 360.23 279.8899999999999 366.1 C 279.4499999999999 370.58000000000004 280.3599999999999 374.3 282.9899999999999 378.01000000000005 C 286.0399999999999 382.33000000000004 288.2599999999999 387.2300000000001 291.2099999999999 391.63000000000005 C 294.2999999999999 396.25000000000006 297.81999999999994 400.57000000000005 301.1699999999999 405.01000000000005 C 301.2199999999999 405.08000000000004 301.4599999999999 405.01000000000005 301.9499999999999 404.9800000000001 C 302.6199999999999 397.9100000000001 303.3099999999999 390.81000000000006 303.9199999999999 383.69000000000005 C 303.9899999999999 382.88000000000005 303.7099999999999 382.01000000000005 303.4499999999999 381.20000000000005 C 301.4999999999999 375.09000000000003 297.4299999999999 370.29 293.7499999999999 365.21000000000004 C 289.9899999999999 360.01000000000005 286.6999999999999 354.47 283.2299999999999 349.06000000000006 C 282.6099999999999 348.09000000000003 282.0999999999999 347.0400000000001 281.1599999999999 345.32000000000005 Z M 283.4299999999999 203.66000000000005 C 283.3399999999999 204.37000000000006 283.26999999999987 204.69000000000005 283.26999999999987 205.01000000000005 C 283.08999999999986 213.53000000000006 283.02999999999986 222.06000000000006 282.66999999999985 230.58000000000004 C 282.5699999999998 232.87000000000003 283.1999999999998 234.31000000000003 284.96999999999986 235.63000000000005 C 291.28999999999985 240.36000000000004 296.6999999999999 246.00000000000006 301.34999999999985 252.38000000000005 C 302.14999999999986 253.47000000000006 303.01999999999987 254.50000000000006 303.57999999999987 255.21000000000006 C 303.57999999999987 248.55000000000007 303.57999999999987 241.70000000000007 303.57999999999987 234.86000000000007 C 303.57999999999987 234.69000000000008 303.5699999999999 234.50000000000006 303.4899999999999 234.35000000000008 C 301.7299999999999 230.5900000000001 299.9699999999999 226.83000000000007 298.1999999999999 223.08000000000007 C 296.9399999999999 220.41000000000008 295.26999999999987 217.86000000000007 294.4999999999999 215.06000000000006 C 292.8899999999999 209.18000000000006 288.0399999999999 206.84000000000006 283.4399999999999 203.67000000000007 Z M 300.26999999999987 414.4100000000001 C 299.3099999999999 413.4700000000001 298.14999999999986 412.75000000000006 297.57999999999987 411.7100000000001 C 293.9899999999999 405.1500000000001 290.5099999999999 398.5200000000001 287.03999999999985 391.8900000000001 C 284.48999999999984 387.0100000000001 282.01999999999987 382.0900000000001 279.4399999999998 377.0600000000001 C 278.8199999999998 379.1200000000001 277.90999999999985 380.9000000000001 277.79999999999984 382.73000000000013 C 277.51999999999987 387.33000000000015 277.49999999999983 391.96000000000015 277.5799999999998 396.5700000000001 C 277.6099999999998 398.0500000000001 277.98999999999984 399.7100000000001 278.7599999999998 400.9500000000001 C 282.6999999999998 407.3100000000001 286.72999999999985 413.6200000000001 290.9099999999998 419.8300000000001 C 293.68999999999977 423.9600000000001 296.7699999999998 427.8800000000001 299.7199999999998 431.9000000000001 C 299.8999999999998 431.8500000000001 300.0799999999998 431.80000000000007 300.2599999999998 431.7500000000001 L 300.2599999999998 414.42000000000013 Z M 281.29999999999984 127.17000000000007 C 281.29999999999984 132.89000000000007 281.08999999999986 138.55000000000007 281.36999999999983 144.19000000000008 C 281.54999999999984 147.8000000000001 282.73999999999984 151.0300000000001 286.5099999999998 152.88000000000008 C 291.5999999999998 155.3700000000001 295.5199999999998 159.38000000000008 299.11999999999983 163.70000000000007 C 299.78999999999985 164.51000000000008 300.5699999999998 165.23000000000008 301.11999999999983 165.8100000000001 C 300.9599999999998 158.66000000000008 300.84999999999985 151.6200000000001 300.59999999999985 144.5900000000001 C 300.5699999999999 143.6500000000001 300.0699999999999 142.60000000000008 299.49999999999983 141.82000000000008 C 294.67999999999984 135.27000000000007 287.54999999999984 131.5900000000001 281.28999999999985 127.18000000000008 Z M 283.4399999999998 323.1000000000001 C 283.0799999999998 323.25000000000006 282.7199999999998 323.4100000000001 282.36999999999983 323.56000000000006 C 282.02999999999986 329.27000000000004 281.5799999999998 334.9700000000001 281.41999999999985 340.68000000000006 C 281.3799999999998 342.0900000000001 281.9399999999998 343.75000000000006 282.7599999999998 344.93000000000006 C 285.7899999999998 349.2800000000001 288.8499999999998 353.6500000000001 292.2699999999998 357.69000000000005 C 295.74999999999983 361.81000000000006 299.67999999999984 365.56000000000006 303.7799999999998 369.86000000000007 C 303.7799999999998 364.9700000000001 303.8099999999998 360.7900000000001 303.74999999999983 356.62000000000006 C 303.74999999999983 355.99000000000007 303.34999999999985 355.33000000000004 303.0299999999998 354.75000000000006 C 302.0699999999998 353.00000000000006 301.1299999999998 351.24000000000007 300.0699999999998 349.55000000000007 C 294.54999999999984 340.7200000000001 288.98999999999984 331.9100000000001 283.4499999999998 323.1000000000001 Z M 284.36999999999983 177.3100000000001 C 283.99999999999983 177.51000000000008 283.6399999999998 177.7100000000001 283.2699999999998 177.9000000000001 C 283.2699999999998 184.9300000000001 283.3199999999998 191.9500000000001 283.2299999999998 198.98000000000008 C 283.2099999999998 200.61000000000007 283.7399999999998 201.49000000000007 285.18999999999977 202.18000000000006 C 290.46999999999974 204.70000000000007 294.77999999999975 208.23000000000008 297.95999999999975 213.34000000000006 C 299.46999999999974 215.76000000000005 302.2499999999998 217.39000000000007 304.5599999999998 219.48000000000005 C 304.83999999999975 216.51000000000005 305.00999999999976 213.47000000000006 305.44999999999976 210.48000000000005 C 305.75999999999976 208.35000000000005 305.22999999999973 206.64000000000004 304.06999999999977 204.87000000000003 C 299.37999999999977 197.75000000000003 294.88999999999976 190.50000000000003 290.09999999999974 183.45000000000005 C 288.5499999999997 181.16000000000005 286.2999999999997 179.34000000000003 284.3699999999997 177.31000000000006 Z M 282.59999999999985 235.4900000000001 C 282.5099999999999 237.0900000000001 282.42999999999984 237.9300000000001 282.40999999999985 238.7700000000001 C 282.26999999999987 244.7800000000001 282.23999999999984 250.8000000000001 281.9499999999999 256.80000000000007 C 281.84999999999985 258.81000000000006 282.57999999999987 259.9100000000001 284.0699999999999 261.12000000000006 C 290.83999999999986 266.64000000000004 298.65999999999985 271.0400000000001 303.1999999999999 278.96000000000004 C 303.21999999999986 279.00000000000006 303.3699999999999 278.96000000000004 303.2999999999999 278.96000000000004 C 303.2999999999999 276.28000000000003 303.0699999999999 273.57000000000005 303.3599999999999 270.92 C 303.6899999999999 267.87 302.8599999999999 265.27000000000004 301.2399999999999 262.81 C 295.9399999999999 254.74 290.6399999999999 246.66 285.2999999999999 238.61 C 284.6899999999999 237.69000000000003 283.8499999999999 236.92000000000002 282.5899999999999 235.48000000000002 Z M 302.24999999999983 343.93000000000006 C 302.3999999999998 343.8400000000001 302.55999999999983 343.76000000000005 302.7099999999998 343.6700000000001 C 302.4899999999998 338.9800000000001 302.2799999999998 334.2900000000001 302.0399999999998 329.61000000000007 C 302.0199999999998 329.20000000000005 301.8699999999998 328.76000000000005 301.6699999999998 328.39000000000004 C 298.00999999999976 321.88000000000005 294.50999999999976 315.27000000000004 290.6099999999998 308.91 C 287.9699999999998 304.61 284.75999999999976 300.66 281.4199999999998 296.03000000000003 C 281.8299999999998 303.85 282.1699999999998 310.8 282.6199999999998 317.75 C 282.6599999999998 318.42 283.2999999999998 319.1 283.76999999999975 319.68 C 286.60999999999973 323.2 289.58999999999975 326.63 292.32999999999976 330.23 C 295.7399999999998 334.72 298.95999999999975 339.36 302.25999999999976 343.93 Z M 300.71999999999986 135.05000000000007 C 300.9499999999999 134.97000000000006 301.1899999999999 134.88000000000008 301.41999999999985 134.80000000000007 C 301.1899999999998 130.91000000000008 301.1399999999999 126.99000000000007 300.6299999999998 123.14000000000007 C 300.41999999999985 121.58000000000007 299.55999999999983 119.71000000000006 298.36999999999983 118.75000000000007 C 292.67999999999984 114.16000000000007 286.77999999999986 109.82000000000008 280.92999999999984 105.42000000000007 C 280.1999999999998 104.87000000000008 279.3299999999998 104.51000000000008 278.5199999999998 104.06000000000007 C 278.24999999999983 104.17000000000007 277.9799999999998 104.28000000000007 277.7099999999998 104.38000000000007 C 278.4799999999998 110.29000000000006 279.2199999999998 116.21000000000006 280.0699999999998 122.12000000000006 C 280.1599999999998 122.72000000000006 280.86999999999983 123.48000000000006 281.4599999999998 123.70000000000006 C 288.5299999999998 126.38000000000007 294.9699999999998 130.10000000000005 300.7199999999998 135.03000000000006 Z M 306.04999999999984 193.20000000000007 C 306.74999999999983 188.0300000000001 304.73999999999984 182.35000000000008 300.5799999999998 177.44000000000008 C 296.55999999999983 172.70000000000007 293.2799999999998 167.5600000000001 290.4099999999998 162.0300000000001 C 288.6699999999998 158.6800000000001 285.7399999999998 155.9600000000001 283.3099999999998 152.92000000000007 C 283.3099999999998 160.36000000000007 283.26999999999975 167.2800000000001 283.37999999999977 174.19000000000008 C 283.38999999999976 174.88000000000008 284.2399999999998 175.72000000000008 284.89999999999975 176.22000000000008 C 288.20999999999975 178.73000000000008 291.6799999999997 181.0300000000001 294.90999999999974 183.63000000000008 C 298.89999999999975 186.85000000000008 302.69999999999976 190.30000000000007 306.0499999999997 193.19000000000008 Z M 275.77999999999986 86.39000000000007 C 276.54999999999984 91.35000000000007 277.16999999999985 95.54000000000008 277.8799999999999 99.72000000000007 C 277.96999999999986 100.23000000000008 278.4399999999999 100.82000000000006 278.90999999999985 101.08000000000007 C 283.84999999999985 103.84000000000007 288.8199999999999 106.55000000000007 293.78999999999985 109.25000000000007 C 294.3899999999999 109.58000000000007 295.07999999999987 109.74000000000007 296.1899999999998 110.16000000000007 C 291.91999999999985 102.00000000000007 287.1299999999998 94.97000000000007 280.66999999999985 89.21000000000006 C 279.4399999999998 88.12000000000006 277.77999999999986 87.52000000000007 275.76999999999987 86.39000000000007 Z"
            stroke-linecap="round" />
    </g>
</svg>