<?xml version="1.0" ?>
<!DOCTYPE svg PUBLIC '-//W3C//DTD SVG 1.1//EN' 'http://www.w3.org/Graphics/SVG/1.1/DTD/svg11.dtd'><svg
    enable-background="new 0 0 64 64" height="64px" id="Layer_1" version="1.1" viewBox="0 0 64 64" width="64px"
    xml:space="preserve" xmlns="http://www.w3.org/2000/svg" xmlns:xlink="http://www.w3.org/1999/xlink">
    <g>
        <defs>
            <rect height="56.75" id="SVGID_1_" width="56.75" x="3.625" y="3.625" />
        </defs>
        <clipPath id="SVGID_2_">
            <use overflow="visible" xlink:href="#SVGID_1_" />
        </clipPath>
        <g clip-path="url(#SVGID_2_)">
            <defs>
                <rect height="56.75" id="SVGID_3_" width="56.75" x="3.625" y="3.625" />
            </defs>
            <clipPath id="SVGID_4_">
                <use overflow="visible" xlink:href="#SVGID_3_" />
            </clipPath>
            <path clip-path="url(#SVGID_4_)"
                d="M58.146,32c0,14.44-11.706,26.146-26.146,26.146S5.854,46.44,5.854,32    C5.854,17.56,17.56,5.853,32,5.853S58.146,17.56,58.146,32"
                fill="#000000" />
            <path clip-path="url(#SVGID_4_)"
                d="    M52.084,12.67c4.824,5.011,7.791,11.824,7.791,19.33c0,15.395-12.48,27.875-27.875,27.875S4.125,47.395,4.125,32    C4.125,16.605,16.605,4.125,32,4.125c3.404,0,6.668,0.61,9.685,1.728"
                fill="none" stroke="#ffffff" stroke-linecap="round" stroke-linejoin="round" stroke-miterlimit="10" />
            <path clip-path="url(#SVGID_4_)" d="    M45.501,7.607c1.157,0.642,2.264,1.364,3.313,2.158" fill="none"
                stroke="#DBDBDB" stroke-linecap="round" stroke-linejoin="round" stroke-miterlimit="10" />
            <g clip-path="url(#SVGID_4_)" opacity="0.15">
                <g>
                    <defs>
                        <rect height="45.5" id="SVGID_5_" width="45.5" x="9.25" y="9.25" />
                    </defs>
                    <clipPath id="SVGID_6_">
                        <use overflow="visible" xlink:href="#SVGID_5_" />
                    </clipPath>
                    <path clip-path="url(#SVGID_6_)"
                        d="M54.75,32c0,12.564-10.186,22.75-22.75,22.75S9.25,44.564,9.25,32      C9.25,19.436,19.436,9.25,32,9.25S54.75,19.436,54.75,32" />
                </g>
            </g>
            <g clip-path="url(#SVGID_4_)" opacity="0.15">
                <g>
                    <defs>
                        <rect height="34.917" id="SVGID_7_" width="34.917" x="14.542" y="14.542" />
                    </defs>
                    <clipPath id="SVGID_8_">
                        <use overflow="visible" xlink:href="#SVGID_7_" />
                    </clipPath>
                    <path clip-path="url(#SVGID_8_)"
                        d="M49.458,32c0,9.642-7.816,17.458-17.458,17.458      c-9.643,0-17.459-7.816-17.459-17.458c0-9.642,7.816-17.458,17.459-17.458C41.642,14.542,49.458,22.358,49.458,32"
                        fill="#000000" />
                </g>
            </g>
            <g clip-path="url(#SVGID_4_)" opacity="0.2">
                <g>
                    <defs>
                        <rect height="18.916" id="SVGID_9_" width="25.174" x="19.967" y="22.304" />
                    </defs>
                    <clipPath id="SVGID_10_">
                        <use overflow="visible" xlink:href="#SVGID_9_" />
                    </clipPath>
                    <path clip-path="url(#SVGID_10_)"
                        d="M45.104,36.493c-0.138-0.952-0.623-1.725-1.369-2.179l-6.193-3.771      c-0.746-0.454-1.656-0.53-2.564-0.215c-0.586,0.205-1.119,0.568-1.565,1.036l-0.847-0.515c0.728-1.673,0.322-3.542-1.043-4.374      l-6.191-3.77c-1.516-0.92-3.637-0.214-4.727,1.578c-0.519,0.851-0.73,1.826-0.6,2.743c0.137,0.952,0.623,1.725,1.369,2.179      l6.193,3.771c0.443,0.27,0.945,0.406,1.47,0.406c0.358,0,0.726-0.063,1.094-0.191c0.787-0.274,1.476-0.824,1.983-1.546      l0.727,0.441c-0.007,0.013-0.017,0.021-0.025,0.033c-0.518,0.852-0.73,1.825-0.599,2.745c0.138,0.95,0.623,1.724,1.369,2.177      l6.193,3.771c0.443,0.271,0.945,0.406,1.47,0.406c0.357,0,0.727-0.063,1.094-0.191c0.876-0.305,1.644-0.941,2.161-1.792      C45.022,38.385,45.234,37.411,45.104,36.493 M34.693,33.266c0.008-0.013,0.019-0.021,0.027-0.034l1.115,0.679      c0.075,0.045,0.157,0.066,0.238,0.066c0.153,0,0.305-0.077,0.39-0.219c0.133-0.217,0.063-0.498-0.152-0.629l-0.919-0.56      c0.255-0.154,0.532-0.24,0.797-0.24c0.202,0,0.397,0.049,0.568,0.153l5.614,3.418c0.324,0.197,0.46,0.514,0.515,0.745      c0.112,0.462,0.018,0.988-0.262,1.446c-0.249,0.41-0.612,0.714-1.021,0.856c-0.381,0.131-0.748,0.105-1.04-0.072l-5.618-3.418      C34.318,35.075,34.203,34.072,34.693,33.266 M30.646,29.683L29.6,29.046c-0.218-0.131-0.496-0.062-0.629,0.153      c-0.131,0.216-0.063,0.497,0.153,0.629l1.089,0.663c-0.23,0.279-0.502,0.509-0.82,0.621c-0.379,0.131-0.748,0.105-1.041-0.073      l-5.617-3.418c-0.627-0.382-0.742-1.386-0.252-2.192c0.356-0.587,0.953-0.936,1.494-0.936c0.203,0,0.397,0.049,0.568,0.153      l5.616,3.418c0.293,0.178,0.485,0.496,0.543,0.892C30.738,29.194,30.711,29.44,30.646,29.683" />
                </g>
            </g>
            <path clip-path="url(#SVGID_4_)"
                d="M44.551,35.939c-0.139-0.951-0.624-1.725-1.37-2.179l-6.193-3.77    c-0.746-0.454-1.656-0.531-2.563-0.215c-0.588,0.204-1.119,0.567-1.565,1.034l-0.847-0.514c0.727-1.672,0.322-3.542-1.043-4.373    l-6.192-3.77c-1.517-0.92-3.636-0.214-4.728,1.578c-0.518,0.851-0.729,1.825-0.599,2.743c0.138,0.951,0.623,1.725,1.369,2.179    l6.192,3.769c0.444,0.271,0.947,0.407,1.471,0.407c0.357,0,0.727-0.063,1.095-0.191c0.786-0.273,1.474-0.824,1.981-1.547    l0.728,0.442c-0.007,0.013-0.017,0.021-0.024,0.034c-0.519,0.851-0.731,1.825-0.6,2.744c0.137,0.95,0.623,1.725,1.369,2.177    l6.193,3.771c0.443,0.271,0.945,0.406,1.47,0.406c0.357,0,0.727-0.063,1.094-0.191c0.876-0.305,1.644-0.941,2.161-1.792    C44.469,37.831,44.681,36.857,44.551,35.939 M34.139,32.712c0.009-0.013,0.02-0.021,0.029-0.034l1.114,0.679    c0.075,0.045,0.157,0.067,0.238,0.067c0.153,0,0.305-0.078,0.391-0.22c0.132-0.216,0.063-0.497-0.153-0.629l-0.92-0.561    c0.256-0.152,0.533-0.238,0.798-0.238c0.202,0,0.397,0.049,0.568,0.152l5.614,3.418c0.324,0.197,0.46,0.514,0.515,0.745    c0.112,0.462,0.018,0.988-0.262,1.446c-0.248,0.41-0.611,0.714-1.021,0.856c-0.382,0.132-0.749,0.105-1.041-0.072l-5.617-3.418    C33.766,34.521,33.65,33.519,34.139,32.712 M30.094,29.13l-1.049-0.637c-0.217-0.131-0.496-0.063-0.627,0.152    c-0.132,0.217-0.063,0.497,0.152,0.629l1.089,0.662c-0.229,0.28-0.502,0.511-0.821,0.621c-0.377,0.132-0.748,0.106-1.041-0.071    l-5.615-3.418c-0.629-0.382-0.743-1.386-0.252-2.192c0.355-0.587,0.953-0.937,1.494-0.937c0.203,0,0.397,0.049,0.567,0.153    l5.616,3.419c0.293,0.178,0.486,0.494,0.543,0.892C30.184,28.64,30.157,28.886,30.094,29.13"
                fill="#FFFFFF" />
        </g>
    </g>
</svg>