<?xml version="1.0" ?>
<svg id="Layer_1" style="enable-background:new 0 0 64 64;" version="1.1" viewBox="0 0 64 64"
	xml:space="preserve" xmlns="http://www.w3.org/2000/svg" xmlns:xlink="http://www.w3.org/1999/xlink">
	<style type="text/css">
		.st0 {
			fill: #000000;
		}

		.st1 {
			fill: none;
			stroke: #6081C4;
			stroke-width: 1.858;
			stroke-linecap: round;
			stroke-linejoin: round;
			stroke-miterlimit: 10;
		}

		.st2 {
			fill: none;
			stroke: #FCBA28;
			stroke-linecap: round;
			stroke-linejoin: round;
			stroke-miterlimit: 10;
		}

		.st3 {
			opacity: 0.15;
		}

		.st4 {
			opacity: 0.2;
		}

		.st5 {
			fill: #FFFFFF;
		}
	</style>
	<circle class="st0" cx="32" cy="32" r="26.1" />
	<path class="st2"
		d="M52.1,12.7c4.8,5,7.8,11.8,7.8,19.3c0,15.4-12.5,27.9-27.9,27.9S4.1,47.4,4.1,32S16.6,4.1,32,4.1  c3.4,0,6.7,0.6,9.7,1.7" />
	<path class="st2" d="M45.5,7.6c1.2,0.6,2.3,1.4,3.3,2.2" />
	<circle class="st3" cx="32" cy="32" r="22.8" />
	<circle class="st3" cx="32" cy="32" r="17.5" />
	<g id="XMLID_43_">
		<g class="st4">
			<path
				d="M44.8,38.7L44.8,38.7C44.8,38.6,44.8,38.6,44.8,38.7C44.8,38.6,44.8,38.6,44.8,38.7L44.8,38.7c-0.3-0.2-0.6-0.2-0.8-0.3    c0,0,0,0,0,0c-1.3-0.4-2.4-1.3-3.3-2.4c-0.5-0.6-0.9-1.3-1.1-2c0,0,0,0,0,0c-0.1-0.3-0.1-0.6,0-0.8c0,0,0,0,0,0    c0.2-0.3,0.7-0.5,1.1-0.7c0,0,0,0,0,0c0.5-0.2,1.1-0.4,1.5-0.8c0,0,0,0,0,0c0.1-0.1,0.2-0.2,0.2-0.3c0,0,0-0.1,0-0.1    c0-0.1,0-0.3,0-0.4c0,0,0,0,0,0c-0.1-0.3-0.4-0.4-0.5-0.5h0c-0.3-0.2-0.6-0.2-0.9-0.1c0,0,0,0,0,0c0,0,0,0,0,0    c-0.3,0.1-0.6,0.2-0.8,0.2c0,0,0,0,0,0c-0.3,0.1-0.7,0.1-0.9,0c0,0,0-0.1,0-0.2h0c0-0.6,0-1.1,0-1.7c0,0,0,0,0,0    c0-0.9,0.1-1.8-0.1-2.8c0,0,0,0,0,0C39,24.2,38,22.9,36.7,22c-0.9-0.7-2-1-3.2-1.1c0,0,0,0,0,0c-0.4,0-0.8,0-1.1,0    c-1.5,0-3.1,0.4-4.3,1.4c-0.9,0.7-1.6,1.7-2.1,2.7c0,0,0,0,0,0c-0.4,1.1-0.4,2.3-0.3,3.4v0c0,0.8,0.1,1.5,0,2.2c0,0,0,0,0,0.1    c-0.3,0.1-0.7,0-1.1,0c0,0,0,0,0,0c-0.3,0-0.5-0.1-0.8-0.2c0,0,0,0,0,0c-0.3-0.1-0.6,0-0.8,0.2c0,0,0,0,0,0c0,0,0,0,0,0    c-0.2,0.1-0.4,0.3-0.4,0.7c0,0,0,0,0,0.1c0,0,0,0,0,0c0,0.2,0.2,0.4,0.3,0.5c0.1,0.1,0.2,0.2,0.3,0.2c0,0,0,0,0,0    c0.6,0.4,1.2,0.5,1.7,0.7c0,0,0,0,0,0c0.4,0.2,0.7,0.4,0.8,0.7c0.1,0.4-0.1,0.9-0.3,1.3v0c-0.6,1.2-1.5,2.2-2.6,3    c-0.6,0.4-1.2,0.7-1.9,0.9c0,0,0,0,0,0c-0.1,0.1-0.5,0.1-0.7,0.4c0,0,0,0,0,0.1c-0.1,0.2,0,0.4,0.1,0.5c0.1,0.1,0.2,0.2,0.3,0.2    c0,0,0,0,0,0c0.6,0.3,1.2,0.5,1.8,0.6c0,0,0,0,0,0c0.4,0.1,0.8,0.1,1.1,0.3c0,0,0,0.1,0.1,0.3c0.1,0.3,0.1,0.7,0.3,1.1    c0,0.1,0.1,0.2,0.2,0.2c0.3,0.1,0.4,0,0.4,0c0,0,0,0,0,0c0.9-0.2,1.9-0.3,2.8-0.1c0,0,0,0,0,0c0.9,0.2,1.7,0.9,2.6,1.4    c0,0,0,0,0,0v0c0.6,0.4,1.3,0.7,2.1,0.8v0c0,0,0,0,0,0c0.6,0,1.2,0,1.8,0c0,0,0,0,0,0c0.5,0,1-0.2,1.4-0.5c0,0,0,0,0,0    c0.9-0.5,1.8-1.2,2.7-1.6c0,0,0,0,0,0c0.3-0.1,0.7-0.1,1.1-0.1c0,0,0,0,0,0c0.8,0,1.5,0,2.3,0.1c0,0,0.1,0,0.1,0    c0.1,0,0.2-0.1,0.3-0.1c0.1-0.1,0.1-0.1,0.1-0.2c0-0.1,0-0.1,0-0.1c0,0,0,0,0-0.1c0.1-0.5,0.2-0.9,0.4-1.1    c0.1-0.1,0.3-0.1,0.5-0.1c0,0,0,0,0,0c0.7-0.1,1.2-0.3,1.8-0.5c0,0,0,0,0,0c0.2-0.1,0.5-0.2,0.7-0.5c0,0,0,0,0,0l0,0    C45.1,39.1,45,38.8,44.8,38.7z" />
		</g>
		<g>
			<path class="st5"
				d="M44.3,38.2L44.3,38.2C44.3,38.1,44.3,38.1,44.3,38.2C44.3,38.1,44.3,38.1,44.3,38.2L44.3,38.2    c-0.3-0.2-0.6-0.2-0.8-0.3c0,0,0,0,0,0c-1.3-0.4-2.4-1.3-3.3-2.4c-0.5-0.6-0.9-1.3-1.1-2c0,0,0,0,0,0c-0.1-0.3-0.1-0.6,0-0.8    c0,0,0,0,0,0c0.2-0.3,0.7-0.5,1.1-0.7c0,0,0,0,0,0c0.5-0.2,1.1-0.4,1.5-0.8c0,0,0,0,0,0c0.1-0.1,0.2-0.2,0.2-0.3c0,0,0-0.1,0-0.1    c0-0.1,0-0.3,0-0.4c0,0,0,0,0,0c-0.1-0.3-0.4-0.4-0.5-0.5h0c-0.3-0.2-0.6-0.2-0.9-0.1c0,0,0,0,0,0c0,0,0,0,0,0    C40.2,29.9,40,30,39.7,30c0,0,0,0,0,0c-0.3,0.1-0.7,0.1-0.9,0c0,0,0-0.1,0-0.2h0c0-0.6,0-1.1,0-1.7c0,0,0,0,0,0    c0-0.9,0.1-1.8-0.1-2.8c0,0,0,0,0,0c-0.3-1.6-1.3-2.9-2.6-3.8c-0.9-0.7-2-1-3.2-1.1c0,0,0,0,0,0c-0.4,0-0.8,0-1.1,0    c-1.5,0-3.1,0.4-4.3,1.4c-0.9,0.7-1.6,1.7-2.1,2.7c0,0,0,0,0,0c-0.4,1.1-0.4,2.3-0.3,3.4v0c0,0.8,0.1,1.5,0,2.2c0,0,0,0,0,0.1    c-0.3,0.1-0.7,0-1.1,0c0,0,0,0,0,0c-0.3,0-0.5-0.1-0.8-0.2c0,0,0,0,0,0c-0.3-0.1-0.6,0-0.8,0.2c0,0,0,0,0,0c0,0,0,0,0,0    c-0.2,0.1-0.4,0.3-0.4,0.7c0,0,0,0,0,0.1c0,0,0,0,0,0c0,0.2,0.2,0.4,0.3,0.5c0.1,0.1,0.2,0.2,0.3,0.2c0,0,0,0,0,0    c0.6,0.4,1.2,0.5,1.7,0.7c0,0,0,0,0,0c0.4,0.2,0.7,0.4,0.8,0.7c0.1,0.4-0.1,0.9-0.3,1.3v0c-0.6,1.2-1.5,2.2-2.6,3    c-0.6,0.4-1.2,0.7-1.9,0.9c0,0,0,0,0,0c-0.1,0.1-0.5,0.1-0.7,0.4c0,0,0,0,0,0.1c-0.1,0.2,0,0.4,0.1,0.5c0.1,0.1,0.2,0.2,0.3,0.2    c0,0,0,0,0,0c0.6,0.3,1.2,0.5,1.8,0.6c0,0,0,0,0,0c0.4,0.1,0.8,0.1,1.1,0.3c0,0,0,0.1,0.1,0.3c0.1,0.3,0.1,0.7,0.3,1.1    c0,0.1,0.1,0.2,0.2,0.2c0.3,0.1,0.4,0,0.4,0c0,0,0,0,0,0c0.9-0.2,1.9-0.3,2.8-0.1c0,0,0,0,0,0c0.9,0.2,1.7,0.9,2.6,1.4    c0,0,0,0,0,0v0c0.6,0.4,1.3,0.7,2.1,0.8v0c0,0,0,0,0,0c0.6,0,1.2,0,1.8,0c0,0,0,0,0,0c0.5,0,1-0.2,1.4-0.5c0,0,0,0,0,0    c0.9-0.5,1.8-1.2,2.7-1.6c0,0,0,0,0,0c0.3-0.1,0.7-0.1,1.1-0.1c0,0,0,0,0,0c0.8,0,1.5,0,2.3,0.1c0,0,0.1,0,0.1,0    c0.1,0,0.2-0.1,0.3-0.1c0.1-0.1,0.1-0.1,0.1-0.2c0-0.1,0-0.1,0-0.1c0,0,0,0,0-0.1c0.1-0.5,0.2-0.9,0.4-1.1    c0.1-0.1,0.3-0.1,0.5-0.1c0,0,0,0,0,0c0.7-0.1,1.2-0.3,1.8-0.5c0,0,0,0,0,0c0.2-0.1,0.5-0.2,0.7-0.5c0,0,0,0,0,0l0,0    C44.6,38.6,44.5,38.3,44.3,38.2z" />
		</g>
	</g>
</svg>